<svg
  width="1000"
  height="560"
  viewBox="0 0 1000 560"
  xmlns="http://www.w3.org/2000/svg"
>

  <defs>

    <!-- Vintage paper grain -->
    <pattern
      id="paper"
      width="80"
      height="80"
      patternUnits="userSpaceOnUse"
    >
      <circle cx="8" cy="12" r="1.2"
        fill="#6f5138" opacity=".10"/>
      <circle cx="42" cy="25" r="1"
        fill="#6f5138" opacity=".08"/>
      <circle cx="67" cy="61" r="1.3"
        fill="#6f5138" opacity=".09"/>
      <circle cx="22" cy="70" r=".8"
        fill="#6f5138" opacity=".08"/>
      <path d="M4 43l2 1M55 8l2-1M72 36l1 2"
        stroke="#6f5138" opacity=".07"/>
    </pattern>

    <!-- Print texture -->
    <pattern
      id="dots"
      width="18"
      height="18"
      patternUnits="userSpaceOnUse"
    >
      <circle
        cx="2"
        cy="2"
        r="1.1"
        fill="#f6e9ca"
        opacity=".22"
      />
    </pattern>

    <clipPath id="round">
      <rect
        x="18"
        y="18"
        width="964"
        height="524"
        rx="18"
      />
    </clipPath>

  </defs>

  <!-- Dark green outer background -->
  <rect
    width="1000"
    height="560"
    fill="#24382b"
  />

  <g clip-path="url(#round)">

    <!-- Paper -->
    <rect
      x="18"
      y="18"
      width="964"
      height="524"
      fill="#f1e2bd"
    />

    <rect
      x="18"
      y="18"
      width="964"
      height="524"
      fill="url(#paper)"
    />

    <!-- Vintage orange frame -->
    <rect
      x="18"
      y="18"
      width="964"
      height="524"
      fill="none"
      stroke="#c95231"
      stroke-width="7"
      opacity=".8"
    />

    <!-- Sun -->
    <circle
      cx="865"
      cy="112"
      r="76"
      fill="#d9a83c"
      opacity=".18"
    />

    <circle
      cx="865"
      cy="112"
      r="52"
      fill="#d9a83c"
      opacity=".15"
    />

    <!-- Sun rays -->
    <g
      stroke="#c95231"
      stroke-width="5"
      opacity=".16"
    >
      <path d="M865 20V55"/>
      <path d="M865 169V204"/>
      <path d="M773 112H808"/>
      <path d="M922 112H957"/>
      <path d="M800 47L825 72"/>
      <path d="M905 152L930 177"/>
      <path d="M930 47L905 72"/>
      <path d="M825 152L800 177"/>
    </g>

    <!-- Header -->
    <text
      x="58"
      y="67"
      font-family="Georgia, 'Times New Roman', serif"
      font-size="17"
      font-weight="bold"
      letter-spacing="3"
      fill="#b64b2d"
    >
      MY DIGITAL GARDEN
    </text>

    <text
      x="58"
      y="91"
      font-family="Arial, sans-serif"
      font-size="11"
      letter-spacing="2"
      fill="#6d5038"
    >
      A SMALL ARCHIVE OF WHAT I BUILD
    </text>

    <text
      x="944"
      y="70"
      text-anchor="end"
      font-family="Courier New, monospace"
      font-size="11"
      letter-spacing="1"
      fill="#6d5038"
    >
      EST. 2023
    </text>

    <!-- Hand-drawn divider -->
    <path
      d="
        M58 111
        C120 106 160 115 220 110
        S330 113 390 109
        S510 113 570 109
        S700 114 760 109
        S850 113 944 109
      "
      fill="none"
      stroke="#b64b2d"
      stroke-width="2"
      opacity=".65"
    />

    <!-- Title -->
    <text
      x="55"
      y="185"
      font-family="Georgia, 'Times New Roman', serif"
      font-size="68"
      font-weight="900"
      letter-spacing="-3"
      fill="#c95030"
      stroke="#7b3f2d"
      stroke-width="1"
    >
      LANGUAGE
    </text>

    <text
      x="55"
      y="250"
      font-family="Georgia, 'Times New Roman', serif"
      font-size="68"
      font-weight="900"
      letter-spacing="-3"
      fill="#c95030"
      stroke="#7b3f2d"
      stroke-width="1"
    >
      STACK
    </text>

    <text
      x="60"
      y="281"
      font-family="Courier New, monospace"
      font-size="13"
      fill="#6d5038"
      letter-spacing="1"
    >
      WHAT'S GROWING IN MY REPOSITORIES
    </text>

    <!-- Flower -->
    <g transform="translate(875 230)">
      <circle cx="0" cy="-18" r="13" fill="#d7a53a"/>
      <circle cx="17" cy="-6" r="13" fill="#d7a53a"/>
      <circle cx="11" cy="14" r="13" fill="#d7a53a"/>
      <circle cx="-11" cy="14" r="13" fill="#d7a53a"/>
      <circle cx="-17" cy="-6" r="13" fill="#d7a53a"/>
      <circle cx="0" cy="0" r="8" fill="#c95030"/>
    </g>

    <!-- Language rows -->
    
      <!-- JavaScript -->
      <circle
        cx="66"
        cy="330"
        r="7"
        fill="#d5a83c"
      />

      <text
        x="86"
        y="335"
        font-family="Arial, sans-serif"
        font-size="15"
        font-weight="bold"
        letter-spacing="1"
        fill="#24382b"
      >JAVASCRIPT</text>

      <text
        x="943"
        y="335"
        text-anchor="end"
        font-family="Courier New, monospace"
        font-size="14"
        font-weight="bold"
        fill="#24382b"
      >74%</text>

      <rect
        x="86"
        y="347"
        width="857"
        height="13"
        rx="6.5"
        fill="#dfcfaa"
      />

      <rect
        x="86"
        y="347"
        width="857.0"
        height="13"
        rx="6.5"
        fill="#d5a83c"
      />


      <!-- HTML -->
      <circle
        cx="66"
        cy="389"
        r="7"
        fill="#c66a43"
      />

      <text
        x="86"
        y="394"
        font-family="Arial, sans-serif"
        font-size="15"
        font-weight="bold"
        letter-spacing="1"
        fill="#24382b"
      >HTML</text>

      <text
        x="943"
        y="394"
        text-anchor="end"
        font-family="Courier New, monospace"
        font-size="14"
        font-weight="bold"
        fill="#24382b"
      >14%</text>

      <rect
        x="86"
        y="406"
        width="857"
        height="13"
        rx="6.5"
        fill="#dfcfaa"
      />

      <rect
        x="86"
        y="406"
        width="166.4"
        height="13"
        rx="6.5"
        fill="#c66a43"
      />


      <!-- CSS -->
      <circle
        cx="66"
        cy="448"
        r="7"
        fill="#b9573d"
      />

      <text
        x="86"
        y="453"
        font-family="Arial, sans-serif"
        font-size="15"
        font-weight="bold"
        letter-spacing="1"
        fill="#24382b"
      >CSS</text>

      <text
        x="943"
        y="453"
        text-anchor="end"
        font-family="Courier New, monospace"
        font-size="14"
        font-weight="bold"
        fill="#24382b"
      >11%</text>

      <rect
        x="86"
        y="465"
        width="857"
        height="13"
        rx="6.5"
        fill="#dfcfaa"
      />

      <rect
        x="86"
        y="465"
        width="127.6"
        height="13"
        rx="6.5"
        fill="#b9573d"
      />


      <!-- Python -->
      <circle
        cx="66"
        cy="507"
        r="7"
        fill="#8b7352"
      />

      <text
        x="86"
        y="512"
        font-family="Arial, sans-serif"
        font-size="15"
        font-weight="bold"
        letter-spacing="1"
        fill="#24382b"
      >PYTHON</text>

      <text
        x="943"
        y="512"
        text-anchor="end"
        font-family="Courier New, monospace"
        font-size="14"
        font-weight="bold"
        fill="#24382b"
      >1%</text>

      <rect
        x="86"
        y="524"
        width="857"
        height="13"
        rx="6.5"
        fill="#dfcfaa"
      />

      <rect
        x="86"
        y="524"
        width="12.0"
        height="13"
        rx="6.5"
        fill="#8b7352"
      />


    <!-- Footer -->
    <path
      d="M18 455H982V542H18Z"
      fill="#c95030"
    />

    <rect
      x="18"
      y="455"
      width="964"
      height="87"
      fill="url(#dots)"
    />

    <text
      x="58"
      y="485"
      font-family="Georgia, 'Times New Roman', serif"
      font-size="23"
      font-weight="bold"
      fill="#f5e7c5"
    >
      MADE WITH CURIOSITY
    </text>

    <text
      x="58"
      y="509"
      font-family="Courier New, monospace"
      font-size="11"
      letter-spacing="1"
      fill="#f5e7c5"
      opacity=".9"
    >
      CULTIVATED ACROSS 50 GITHUB REPOSITORIES
    </text>

    <text
      x="942"
      y="500"
      text-anchor="end"
      font-family="Georgia, 'Times New Roman', serif"
      font-size="29"
      font-weight="bold"
      font-style="italic"
      fill="#f5e7c5"
    >
      ✦
    </text>

  </g>

  <!-- Outer border -->
  <rect
    x="18"
    y="18"
    width="964"
    height="524"
    rx="18"
    fill="none"
    stroke="#f1e2bd"
    stroke-width="3"
    opacity=".8"
  />

</svg>
